<svg width="28" height="28" viewBox="0 0 28 28" fill="none" xmlns="http://www.w3.org/2000/svg">
  <g clip-path="url(#clip0_2124_88365)">
    <path
      d="M16.6719 26.9102C17.5156 26.9102 18.1133 26.1836 18.5469 25.0586L26.2227 5.00781C26.4336 4.46875 26.5508 3.98827 26.5508 3.58983C26.5508 2.82811 26.082 2.35938 25.3203 2.35938C24.9219 2.35938 24.4414 2.47655 23.9023 2.68749L3.74609 10.4102C2.76172 10.7852 2 11.3828 2 12.2383C2 13.3164 2.82031 13.6797 3.94531 14.0195L12.4062 16.5039L14.8672 24.8594C15.2188 26.043 15.582 26.9102 16.6719 26.9102ZM12.9336 14.7227L4.84766 12.25C4.66016 12.1914 4.60156 12.1445 4.60156 12.0625C4.60156 11.9805 4.64844 11.9219 4.82422 11.8516L20.668 5.85156C21.6055 5.5 22.5078 5.03125 23.375 4.63281C22.6016 5.26561 21.6406 6.01562 20.9961 6.66016L12.9336 14.7227ZM16.8594 24.332C16.7656 24.332 16.7188 24.25 16.6602 24.0625L14.1875 15.9766L22.25 7.91405C22.8828 7.28124 23.668 6.29688 24.2891 5.49999C23.8906 6.39061 23.4102 7.29296 23.0586 8.24218L17.0586 24.0859C16.9883 24.2617 16.9414 24.332 16.8594 24.332Z"
      fill="#838383"
      fill-opacity="0.85"
    />
  </g>
  <defs>
    <clipPath id="clip0_2124_88365">
      <rect width="24.5508" height="25.9102" fill="white" transform="translate(2 1)" />
    </clipPath>
  </defs>
</svg>
