<svg
  width="29"
  height="29"
  viewBox="0 0 29 29"
  fill="none"
  xmlns="http://www.w3.org/2000/svg"
>
  <g clip-path="url(#clip0_2124_46022)">
    <path
      d="M2.02148 18.2842C2.02148 22.0694 4.49414 25.2569 7.48242 25.2569H11.2207C12.709 26.042 14.5137 26.4991 16.5293 26.4991H18.0996C19.5059 26.4991 20.7246 26.417 21.5332 26.2178C23.1035 25.8311 24.0879 24.7413 24.0879 23.3584C24.0879 23.0655 24.041 22.8077 23.9707 22.5498C24.7442 21.9639 25.1777 21.1084 25.1777 20.1709C25.1777 19.7139 25.084 19.2569 24.9199 18.8936C25.4473 18.3545 25.7403 17.5694 25.7403 16.7491C25.7403 16.2217 25.6113 15.6592 25.3887 15.2491C25.7051 14.792 25.8926 14.1475 25.8926 13.4678C25.8926 11.7803 24.5684 10.4443 22.8809 10.4443H18.6035C18.3457 10.4443 18.1817 10.3272 18.1817 10.1045C18.1817 8.88574 20.1035 6.02637 20.1035 3.72949C20.1035 2.14746 19.002 1.02246 17.4903 1.02246C16.377 1.02246 15.627 1.59668 14.8887 3.00293C13.5176 5.63965 11.877 8.00684 9.20507 11.2647H7.06054C4.27148 11.2647 2.02148 14.417 2.02148 18.2842ZM8.61914 18.2256C8.61914 15.7764 9.16992 14.2178 10.6934 12.167C12.3926 9.89355 14.7481 7.1748 16.4473 3.7998C16.8692 2.94434 17.1504 2.75684 17.5606 2.75684C18.041 2.75684 18.3692 3.09668 18.3692 3.72949C18.3692 5.55762 16.4473 8.32324 16.4473 10.1045C16.4473 11.3936 17.502 12.1787 18.8496 12.1787H22.8809C23.6074 12.1787 24.1582 12.7295 24.1582 13.4678C24.1582 14.0069 23.9824 14.3467 23.5488 14.792C23.3379 14.9795 23.3145 15.2139 23.4903 15.4366C23.8535 15.9756 24.0059 16.3037 24.0059 16.7491C24.0059 17.2764 23.7598 17.7334 23.2442 18.1202C22.9629 18.3428 22.8457 18.6358 23.0098 18.9873C23.3027 19.5147 23.4434 19.7608 23.4434 20.1709C23.4434 20.7686 23.0567 21.2256 22.2363 21.6475C21.9785 21.7998 21.9199 22.0108 22.0254 22.2569C22.3067 22.96 22.3418 23.0655 22.3418 23.3584C22.3418 23.8975 21.9434 24.3311 21.1231 24.542C20.4551 24.7061 19.3887 24.7764 18.1113 24.7764H16.6582C11.8301 24.7764 8.61914 22.0342 8.61914 18.2256ZM3.75586 18.2842C3.75586 15.3663 5.32617 12.9991 7.06054 12.9991C7.40039 12.9991 7.74023 12.9991 8.08007 12.9991C7.24804 14.5694 6.88476 16.21 6.88476 18.1905C6.88476 20.2881 7.63476 22.1163 8.98242 23.5108C8.47851 23.5108 7.98632 23.5108 7.48242 23.5108C5.50195 23.5108 3.75586 21.1202 3.75586 18.2842Z"
      fill="black"
      fill-opacity="0.85"
    />
  </g>
  <defs>
    <clipPath id="clip0_2124_46022">
      <rect
        width="23.8711"
        height="26.168"
        fill="white"
        transform="translate(2.02148 1.02246)"
      />
    </clipPath>
  </defs>
</svg>
