<svg
  width="28"
  height="28"
  viewBox="0 0 28 28"
  fill="none"
  xmlns="http://www.w3.org/2000/svg"
>
  <path
    d="M13.9531 25.9062C20.4922 25.9062 25.9062 20.4805 25.9062 13.9531C25.9062 7.41406 20.4805 2 13.9414 2C7.41406 2 2 7.41406 2 13.9531C2 20.4805 7.42578 25.9062 13.9531 25.9062ZM13.9531 23.9141C8.42188 23.9141 4.00391 19.4844 4.00391 13.9531C4.00391 8.42188 8.41016 3.99219 13.9414 3.99219C19.4727 3.99219 23.9141 8.42188 23.9141 13.9531C23.9141 19.4844 19.4844 23.9141 13.9531 23.9141Z"
    fill="#18B569"
    fill-opacity="0.85"
  />
  <path
    d="M12.6641 19.5195C13.0508 19.5195 13.3789 19.332 13.6133 18.9688L18.9688 10.543C19.0977 10.3086 19.25 10.0508 19.25 9.79297C19.25 9.26562 18.7812 8.92578 18.2891 8.92578C17.9961 8.92578 17.7031 9.11328 17.4805 9.45312L12.6172 17.2578L10.3086 14.2695C10.0273 13.8945 9.76953 13.8008 9.44141 13.8008C8.9375 13.8008 8.53906 14.2109 8.53906 14.7266C8.53906 14.9844 8.64453 15.2305 8.80859 15.4531L11.668 18.9688C11.9609 19.3555 12.2773 19.5195 12.6641 19.5195Z"
    fill="#18B569"
    fill-opacity="0.85"
  />
</svg>
