<svg
  width="29"
  height="29"
  viewBox="0 0 29 29"
  fill="none"
  xmlns="http://www.w3.org/2000/svg"
>
  <g clip-path="url(#clip0_2124_46026)">
    <path
      d="M25.8828 9.24902C25.8828 5.45215 23.4101 2.27637 20.4219 2.27637H16.6836C15.1953 1.49121 13.3906 1.02246 11.375 1.02246H9.80469C8.39844 1.02246 7.17969 1.10449 6.3711 1.31543C4.80078 1.69043 3.81641 2.79199 3.81641 4.1748C3.81641 4.45605 3.86328 4.72558 3.9336 4.97168C3.16016 5.56934 2.72656 6.41308 2.72656 7.3623C2.72656 7.81934 2.80859 8.26465 2.98437 8.63965C2.45703 9.17871 2.15234 9.96387 2.15234 10.7842C2.15234 11.3116 2.29297 11.8741 2.51562 12.2842C2.19922 12.7413 2.01172 13.3858 2.01172 14.0537C2.01172 15.753 3.33594 17.0889 5.02344 17.0889H9.30078C9.5586 17.0889 9.72266 17.2061 9.72266 17.4287C9.72266 18.6475 7.80078 21.5069 7.80078 23.8037C7.80078 25.3858 8.90234 26.5108 10.4141 26.5108C11.5273 26.5108 12.2773 25.9366 13.0039 24.5303C14.3867 21.8819 16.0273 19.5264 18.6992 16.2686H20.8437C23.6328 16.2686 25.8828 13.1163 25.8828 9.24902ZM19.2851 9.30762C19.2851 11.7569 18.7344 13.3155 17.2109 15.3663C15.5117 17.628 13.1445 20.3584 11.457 23.7334C11.0234 24.5772 10.7539 24.7764 10.3437 24.7764C9.86328 24.7764 9.53516 24.4366 9.53516 23.8037C9.53516 21.9639 11.457 19.1983 11.457 17.4287C11.457 16.1397 10.4023 15.3545 9.05469 15.3545H5.02344C4.29688 15.3545 3.7461 14.8037 3.7461 14.0537C3.7461 13.5147 3.91016 13.1748 4.35547 12.7413C4.56641 12.5537 4.58984 12.3077 4.41406 12.0967C4.05078 11.5577 3.88672 11.2295 3.88672 10.7842C3.88672 10.2451 4.14453 9.7998 4.66016 9.40137C4.94141 9.19043 5.0586 8.89746 4.88281 8.5459C4.60156 8.01855 4.46094 7.77246 4.46094 7.3623C4.46094 6.76465 4.84766 6.2959 5.66797 5.87402C5.92578 5.7334 5.98438 5.52246 5.86719 5.26465C5.59766 4.57324 5.5625 4.46777 5.5625 4.1748C5.5625 3.63574 5.94922 3.20215 6.76953 2.99121C7.4375 2.81543 8.50391 2.74512 9.79297 2.74512H11.2461C16.0742 2.75684 19.2851 5.49902 19.2851 9.30762ZM24.1484 9.24902C24.1484 12.1553 22.5781 14.5342 20.8437 14.5342C20.5039 14.5342 20.164 14.5342 19.8242 14.5342C20.6562 12.9522 21.0195 11.3116 21.0195 9.34277C21.0195 7.24512 20.2695 5.41699 18.9219 4.02246C19.414 4.02246 19.9179 4.02246 20.4219 4.02246C22.4023 4.02246 24.1484 6.40137 24.1484 9.24902Z"
      fill="black"
      fill-opacity="0.85"
    />
  </g>
  <defs>
    <clipPath id="clip0_2124_46026">
      <rect
        width="23.8711"
        height="25.5352"
        fill="white"
        transform="translate(2.01172 1.02246)"
      />
    </clipPath>
  </defs>
</svg>
