<svg
  width="512"
  height="512"
  viewBox="0 0 512 512"
  fill="none"
  xmlns="http://www.w3.org/2000/svg"
>
  <path
    d="M307.111 372.809V334.812C307.111 310.038 286.756 290.831 260.16 290.831H47.0992C20.5038 290.831 0 271.623 0 246.849V139.26C0 114.207 20.5038 95 47.0992 95H260.16C286.756 95 307.111 114.207 307.111 139.26V246.71C307.111 271.484 327.615 290.691 354.21 290.691H464.901C491.496 290.691 512 309.899 512 334.673V372.67C512 397.723 491.496 416.93 464.901 416.93H354.21C327.615 416.93 307.111 397.723 307.111 372.67V372.809Z"
    fill="url(#paint0_linear_616_1922)"
  />
  <defs>
    <linearGradient
      id="paint0_linear_616_1922"
      x1="256"
      y1="95"
      x2="254.979"
      y2="771.681"
      gradientUnits="userSpaceOnUse"
    >
      <stop stop-color="#19EA85" />
      <stop offset="1" />
    </linearGradient>
  </defs>
</svg>
