<svg width="290" height="196" viewBox="0 0 290 196" fill="none" xmlns="http://www.w3.org/2000/svg">
<path d="M173.95 169.138V146.004C173.95 130.921 162.42 119.227 147.356 119.227H26.6773C11.6135 119.227 0 107.533 0 92.4496V26.9468C0 11.6939 11.6135 0 26.6773 0H147.356C162.42 0 173.95 11.6939 173.95 26.9468V92.3649C173.95 107.448 185.563 119.142 200.627 119.142H263.323C278.387 119.142 290 130.836 290 145.92V169.053C290 184.306 278.387 196 263.323 196H200.627C185.563 196 173.95 184.306 173.95 169.053V169.138Z" fill="white"/>
</svg>
