<svg
  width="182"
  height="24"
  viewBox="0 0 182 24"
  fill="none"
  xmlns="http://www.w3.org/2000/svg"
>
  <path
    d="M46.8633 23.7978H42.8594L51.6748 0.202246H56.2844L65.0662 23.7978H60.9277L58.707 17.9663H49.0504L46.8633 23.7978ZM53.8619 4.38202L50.1271 14.6629H57.6303L53.8619 4.38202Z"
    fill="#333"
  />
  <path
    d="M65.8782 18.1011H69.4448C69.5794 19.8876 71.1271 21.1685 73.7516 21.1685C76.0059 21.1685 77.4863 20.2921 77.4863 18.9101C77.4863 17.0562 75.9049 16.9213 73.2469 16.5843C69.3102 16.1124 66.2147 15.2697 66.2147 11.6966C66.2147 8.42697 69.142 6.30337 73.2805 6.33708C77.52 6.33708 80.5146 8.29213 80.7501 11.8315H77.1835C76.9816 10.2472 75.5012 9.13483 73.3478 9.13483C71.1944 9.13483 69.7812 10.0112 69.7812 11.3933C69.7812 13.0112 71.4299 13.2135 73.9198 13.4831C77.8565 13.9551 81.0529 14.764 81.0529 18.6067C81.0529 21.9101 77.9238 24 73.7516 24C69.142 24 65.9792 21.8427 65.8782 18.1011Z"
    fill="#333"
  />
  <path
    d="M83.869 23.7978V0.202246H87.5028V14.8989L95.3089 6.53933H99.582L93.0882 13.5169L99.9858 23.7978H95.679L90.5983 16.1798L87.5028 19.4157V23.7978H83.869Z"
    fill="#333"
  />
  <path
    d="M112.343 24C105.748 24 101.205 19.1798 101.205 12C101.205 4.82023 105.647 0 112.645 0C118.096 0 122.066 3.23596 122.773 8.22472H118.769C118.062 5.22472 115.808 3.40449 112.544 3.40449C108.069 3.40449 105.176 6.94382 105.176 12C105.176 17.0562 108.002 20.5955 112.511 20.5955C116.145 20.5955 119.072 18.5393 119.274 14.7303V14.1573H112.746V10.8876H122.975V23.7978H119.98L119.644 20.6292C118.5 22.3146 116.077 24 112.343 24Z"
    fill="#333"
  />
  <path
    d="M138.723 15.1685V6.53933H142.357V23.7978H139.161L138.757 21.6067C137.68 22.9213 136.099 24 133.441 24C129.773 24 126.644 22.0449 126.644 16.1461V6.53933H130.278V15.7416C130.278 19.1124 131.624 20.8315 134.282 20.8315C137.041 20.8315 138.723 18.7416 138.723 15.1685Z"
    fill="#333"
  />
  <path
    d="M154.653 6.53933H155.46V9.94382H153.845C150.615 9.94382 149.572 12.4719 149.572 15.1348V23.7978H145.938V6.53933H149.168L149.572 9.13483C150.447 7.68539 151.826 6.53933 154.653 6.53933Z"
    fill="#333"
  />
  <path
    d="M169.511 15.1685V6.53933H173.145V23.7978H169.949L169.545 21.6067C168.468 22.9213 166.887 24 164.229 24C160.561 24 157.432 22.0449 157.432 16.1461V6.53933H161.066V15.7416C161.066 19.1124 162.412 20.8315 165.07 20.8315C167.829 20.8315 169.511 18.7416 169.511 15.1685Z"
    fill="#333"
  />
  <path
    d="M175.715 3.02857C175.715 1.31429 177.026 0 178.701 0C180.389 0 181.715 1.31429 181.715 3.01429C181.715 4.71429 180.389 6 178.701 6C177.026 6 175.715 4.71429 175.715 3.02857ZM181.003 3.01429C181.003 1.65714 180.026 0.642857 178.701 0.642857C177.389 0.642857 176.413 1.65714 176.413 3.02857C176.413 4.37143 177.389 5.37143 178.701 5.37143C180.026 5.37143 181.003 4.35714 181.003 3.01429ZM177.571 4.64286V1.38571H178.826C179.58 1.38571 180.068 1.8 180.068 2.44286C180.068 2.88571 179.817 3.22857 179.399 3.38571L180.096 4.64286H179.329L178.715 3.52857H178.268V4.64286H177.571ZM178.785 1.97143H178.268V2.94286H178.785C179.119 2.94286 179.343 2.75714 179.343 2.44286C179.343 2.12857 179.119 1.97143 178.785 1.97143Z"
    fill="#333"
  />
  <path
    d="M21.0796 20.7108V17.8781C21.0796 16.0311 19.6824 14.5992 17.857 14.5992H3.23282C1.40735 14.5992 0 13.1673 0 11.3204V3.29961C0 1.43191 1.40735 0 3.23282 0H17.857C19.6824 0 21.0796 1.43191 21.0796 3.29961V11.31C21.0796 13.1569 22.4869 14.5888 24.3124 14.5888H31.91C33.7355 14.5888 35.1429 16.0208 35.1429 17.8677V20.7004C35.1429 22.5681 33.7355 24 31.91 24H24.3124C22.4869 24 21.0796 22.5681 21.0796 20.7004V20.7108Z"
    fill="url(#paint0_linear_629_566)"
  />
  <defs>
    <linearGradient
      id="paint0_linear_629_566"
      x1="17.5714"
      y1="1.80348e-09"
      x2="17.4888"
      y2="50.4467"
      gradientUnits="userSpaceOnUse"
    >
      <stop stop-color="#19EA85" />
      <stop offset="1" />
    </linearGradient>
  </defs>
</svg>
